<svg width="284" height="272" viewBox="0 0 284 272" fill="none" xmlns="http://www.w3.org/2000/svg">
<path d="M283.352 136.069C283.352 150.714 270.149 163.105 265.847 176.317C261.388 190.018 264.64 207.757 256.334 219.169C247.94 230.686 229.998 233.045 218.474 241.434C207.072 249.735 199.325 266.111 185.615 270.55C172.395 274.849 156.551 266.286 141.897 266.286C127.242 266.286 111.399 274.849 98.1782 270.55C84.4681 266.093 76.7212 249.718 65.3195 241.434C53.7953 233.045 35.8533 230.686 27.4594 219.169C19.1529 207.775 22.4055 190.018 17.9462 176.317C13.6444 163.105 0.441406 150.714 0.441406 136.069C0.441406 121.423 13.6444 109.033 17.9462 95.8205C22.4055 82.1189 19.1529 64.3804 27.4594 52.9683C35.8533 41.4513 53.7953 39.092 65.3195 30.7033C76.7212 22.402 84.4681 6.02656 98.1782 1.58755C111.399 -2.71165 127.242 5.8518 141.897 5.8518C156.551 5.8518 172.395 -2.71165 185.615 1.58755C199.325 6.04404 207.072 22.4195 218.474 30.7033C229.998 39.092 247.94 41.4513 256.334 52.9683C264.64 64.3629 261.388 82.1189 265.847 95.8205C270.149 109.033 283.352 121.423 283.352 136.069Z" fill="#F3ECE1"/>
<path d="M283.352 136.069C283.352 150.714 270.149 163.105 265.847 176.317C261.388 190.018 264.64 207.757 256.334 219.169C247.94 230.686 229.998 233.045 218.474 241.434C207.072 249.735 199.325 266.111 185.615 270.55C172.395 274.849 156.551 266.286 141.897 266.286C127.242 266.286 111.399 274.849 98.1782 270.55C84.4681 266.093 76.7212 249.718 65.3195 241.434C53.7953 233.045 35.8533 230.686 27.4594 219.169C19.1529 207.775 22.4055 190.018 17.9462 176.317C13.6444 163.105 0.441406 150.714 0.441406 136.069C0.441406 121.423 13.6444 109.033 17.9462 95.8205C22.4055 82.1189 19.1529 64.3804 27.4594 52.9683C35.8533 41.4513 53.7953 39.092 65.3195 30.7033C76.7212 22.402 84.4681 6.02656 98.1782 1.58755C111.399 -2.71165 127.242 5.8518 141.897 5.8518C156.551 5.8518 172.395 -2.71165 185.615 1.58755C199.325 6.04404 207.072 22.4195 218.474 30.7033C229.998 39.092 247.94 41.4513 256.334 52.9683C264.64 64.3629 261.388 82.1189 265.847 95.8205C270.149 109.033 283.352 121.423 283.352 136.069Z" fill="#F3ECE1"/>
<path d="M256.336 219.169C264.642 207.775 261.39 190.019 265.849 176.317C266.671 173.783 267.825 171.284 269.137 168.802C268.612 168.33 268.087 167.876 267.545 167.439C267.545 167.457 266.164 166.46 265.901 166.286C264.398 165.307 262.841 164.416 261.232 163.629C260.603 163.315 259.973 163.035 259.326 162.738C258.487 162.406 257.63 162.074 256.773 161.777C255.024 161.148 253.241 160.588 251.457 160.082C243.185 157.67 234.721 155.94 226.572 153.143C215.993 149.508 206.27 144.405 197.491 137.45C180.056 123.608 167.885 104.506 154.612 86.9601C142.213 70.5672 127.419 54.3141 107.518 47.4983C96.7812 43.8283 85.2221 42.7972 74.5898 45.7332C64.8668 48.4246 56.7177 54.0869 49.9501 61.829C35.7329 78.117 30.0495 102.427 31.7458 123.993C33.5295 146.677 44.7214 167.509 53.7449 188.131C61.4568 205.747 67.5599 223.853 67.0527 242.797C77.5277 251.413 85.1696 266.338 98.1627 270.55C111.383 274.849 127.227 266.286 141.881 266.286C156.536 266.286 172.379 274.849 185.6 270.55C199.31 266.094 207.056 249.718 218.458 241.434C229.982 233.046 247.924 230.686 256.318 219.169H256.336Z" fill="#E7B167"/>
<path d="M34.282 149.928C34.282 149.928 21.0965 126.142 44.4422 93.741C44.4422 93.741 58.7468 129.131 34.282 149.928Z" fill="#78A3AA"/>
<path d="M33.5286 148.932C31.0979 144.423 30.1711 138.865 29.8913 133.832C29.524 127.348 30.5033 120.847 32.4444 114.66C33.4937 111.287 34.8402 108.002 36.4141 104.839C36.9387 103.755 42.6046 93.1818 42.4647 93.1643C44.8954 93.5837 46.2594 109.627 46.4168 111.55C47.4836 125.968 43.2166 139.302 32.3395 149.141C32.0422 149.403 33.2489 149.299 33.4937 149.071C49.1623 134.898 51.2433 111.794 43.7063 92.7449C43.5664 92.3779 42.5871 92.8148 42.4472 93.0245C31.9723 108.124 22.5991 131.263 32.287 149.281C32.4619 149.613 33.6686 149.176 33.5461 148.949L33.5286 148.932Z" fill="#14393A"/>
<path d="M33.302 118.645C34.5611 120.777 35.8202 122.909 37.0793 125.059C37.3941 125.583 38.5832 125.076 38.2335 124.482C36.9744 122.35 35.7153 120.218 34.4562 118.068C34.1414 117.544 32.9523 118.051 33.302 118.645Z" fill="#14393A"/>
<path d="M36.2224 135.842C38.1984 133.098 40.192 130.354 42.1681 127.593C42.4479 127.208 41.2063 127.348 41.0139 127.628C39.0378 130.371 37.0443 133.115 35.0682 135.877C34.7884 136.261 36.03 136.121 36.2224 135.842Z" fill="#14393A"/>
<path d="M40.945 106.324C38.077 120.62 35.2966 134.951 32.2887 149.211C32.2363 149.438 33.4779 149.264 33.5303 148.967C36.5556 134.671 39.3536 120.305 42.2215 105.975C42.2215 105.905 41.0324 105.94 40.9625 106.307L40.945 106.324Z" fill="#14393A"/>
<path d="M230.906 198.303C230.906 198.303 229.419 171.162 264.569 152.165C264.569 152.165 261.998 190.246 230.906 198.303Z" fill="#78A3AA"/>
<path d="M230.68 196.905C230.453 191.801 232.044 186.419 233.985 181.787C236.311 176.23 239.704 171.092 243.761 166.635C245.422 164.818 262.332 150.208 263.014 151.099C265.113 153.79 259.482 166.88 258.503 169.327C253.239 182.434 243.708 192.535 229.893 196.503C229.106 196.73 229.351 197.639 230.138 197.411C250.633 191.522 262.804 171.389 264.326 150.784C264.361 150.312 263.696 150.26 263.399 150.435C247.206 159.505 228.494 176.422 229.386 197.009C229.421 197.691 230.698 197.516 230.68 196.922V196.905Z" fill="#14393A"/>
<path d="M243.693 169.886C243.903 172.35 244.095 174.832 244.305 177.296C244.358 177.89 245.617 177.575 245.564 176.964C245.354 174.499 245.162 172.018 244.952 169.554C244.9 168.959 243.641 169.274 243.693 169.886Z" fill="#14393A"/>
<path d="M238.552 186.558C241.543 184.95 244.516 183.343 247.506 181.735C248.275 181.333 247.576 180.721 246.964 181.053C243.974 182.661 241.001 184.269 238.01 185.877C237.241 186.279 237.94 186.89 238.552 186.558Z" fill="#14393A"/>
<path d="M255.985 162.074C247.154 173.713 238.393 185.405 229.439 196.94C229.089 197.394 230.366 197.307 230.628 196.975C239.582 185.44 248.343 173.748 257.174 162.109C257.524 161.655 256.247 161.742 255.985 162.074Z" fill="#14393A"/>
<path d="M59.3581 83.5519C59.2881 73.6428 56.2278 70.6194 46.3125 70.6893C56.2278 70.6194 59.2531 67.561 59.1832 57.6519C59.2531 67.561 62.3134 70.5844 72.2288 70.5145C62.3134 70.5844 59.2881 73.6428 59.3581 83.5519Z" fill="#FDFAFD"/>
<path d="M254.747 147.516C254.677 137.607 251.617 134.583 241.701 134.653C251.617 134.583 254.642 131.525 254.572 121.616C254.642 131.525 257.702 134.548 267.617 134.478C257.702 134.548 254.677 137.607 254.747 147.516Z" fill="#EFB4BF"/>
<path d="M106.001 40.2981C105.913 27.8548 102.066 24.0624 89.6152 24.1498C102.066 24.0624 105.861 20.2176 105.774 7.77441C105.861 20.2176 109.708 24.01 122.159 23.9226C109.708 24.01 105.913 27.8548 106.001 40.2981Z" fill="#E7B167"/>
<mask id="mask0_2107_13295" style="mask-type:luminance" maskUnits="userSpaceOnUse" x="0" y="0" width="284" height="272">
<path d="M283.352 136.069C283.352 150.714 270.149 163.105 265.847 176.317C261.388 190.019 264.64 207.757 256.334 219.169C247.94 230.686 229.998 233.046 218.474 241.434C207.072 249.736 199.325 266.111 185.615 270.55C172.395 274.849 156.551 266.286 141.897 266.286C127.242 266.286 111.399 274.849 98.1782 270.55C84.4681 266.094 76.7212 249.718 65.3195 241.434C53.7953 233.046 35.8533 230.686 27.4594 219.169C19.1529 207.775 22.4055 190.019 17.9462 176.317C13.6444 163.105 0.441406 150.714 0.441406 136.069C0.441406 121.424 13.6444 109.033 17.9462 95.8207C22.4055 82.1192 19.1529 64.3806 27.4594 52.9685C35.8533 41.4515 53.7953 39.0922 65.3195 30.7035C76.7212 22.4022 84.4681 6.02681 98.1782 1.58779C111.399 -2.71141 127.242 5.85204 141.897 5.85204C156.551 5.85204 172.395 -2.71141 185.615 1.58779C199.325 6.04428 207.072 22.4197 218.474 30.7035C229.998 39.0922 247.94 41.4515 256.334 52.9685C264.64 64.3631 261.388 82.1192 265.847 95.8207C270.149 109.033 283.352 121.424 283.352 136.069Z" fill="white"/>
</mask>
<g mask="url(#mask0_2107_13295)">
<path d="M255.635 283.19C263.277 291.282 256.545 260.034 248.011 252.886C243.884 249.426 238.2 246.35 237.956 240.985C237.851 238.713 238.83 236.563 239.547 234.414C243.621 222.302 239.512 207.884 229.667 199.74C224.823 195.738 218.562 192.925 215.677 187.332C213.158 182.474 213.823 176.514 215.747 171.394C217.67 166.273 220.748 161.659 223.091 156.713C229.946 142.225 230.226 125.535 229.089 109.562C228.233 97.4158 226.571 85.1823 222.077 73.8751C217.583 62.5678 209.958 52.1519 199.361 46.1749C199.361 46.1749 117.905 7.13258 73.5919 82.7531C73.5919 82.7531 57.1363 105.944 54.8804 138.083C54.8804 138.083 55.8772 149.286 35.8017 160.541C15.7437 171.796 -27.5899 191.561 -14.0197 244.55L43.5137 279.101C43.5137 279.101 254.219 281.722 255.635 283.225V283.19Z" fill="#F3ECE1"/>
<path d="M254.858 283.832C262.483 291.015 257.167 269.571 256.625 267.946C254.054 260.239 250.749 255.101 244.558 249.963C239.942 246.118 237.843 243.13 239.277 236.925C239.837 234.479 240.798 232.277 241.183 229.76C241.97 224.709 241.463 219.397 239.889 214.556C238.298 209.697 235.587 205.136 231.932 201.536C227.735 197.376 221.615 194.999 218.03 190.263C208.132 177.191 222.157 162.633 226.266 150.068C230.498 137.1 230.481 123.206 229.519 109.749C228.54 95.9431 226.546 81.8221 220.391 69.2741C209.041 46.1527 187.27 39.1272 163.295 36.6281C129.054 33.0629 97.5421 46.7994 77.7814 75.2335C68.653 88.3583 61.3957 102.724 57.3736 118.243C55.3451 126.072 55.6949 134.479 53.439 142.116C50.2563 152.986 38.3124 158.876 29.1666 163.926C16.4183 170.969 3.77492 178.851 -5.3185 190.473C-16.7028 205.048 -19.5007 223.206 -15.7759 241.067C-14.7442 246.031 -13.5201 245.926 -9.30562 248.477C-3.49982 251.973 2.30598 255.45 8.12927 258.946C15.0717 263.123 22.0317 267.299 28.9742 271.459C33.0488 273.906 37.3856 277.436 41.8099 279.166C44.8702 280.354 48.3152 279.917 51.6553 279.952C62.1477 280.092 72.6576 280.232 83.15 280.372C138.76 281.141 194.632 280.704 250.189 283.535C251.361 283.588 253.862 283.255 254.911 283.885C255.348 284.147 256.485 283.535 255.89 283.186C253.319 281.665 247.391 282.539 244.576 282.434C234.381 282.085 224.168 281.857 213.973 281.648C184.786 281.018 155.6 280.564 126.414 280.127C102.281 279.76 78.1661 279.428 54.0336 279.114C50.9383 279.079 45.5872 279.533 43.3138 278.799C39.8163 277.663 36.1615 274.5 33.0487 272.63C27.0331 269.012 21.0174 265.412 15.0018 261.794C8.79379 258.072 2.58578 254.332 -3.62224 250.61C-6.2978 249.002 -11.4566 247.149 -13.4326 244.72C-15.6011 242.064 -15.5661 235.388 -15.8984 231.927C-16.423 226.422 -16.2831 220.83 -15.3388 215.377C-13.66 205.748 -9.37557 196.922 -3.18505 189.39C6.5554 177.541 19.9682 170.008 33.1537 162.668C42.9466 157.215 53.6663 150.295 55.2752 138.376C60.2766 101.238 78.4459 61.13 114.575 44.5449C139.459 33.1153 169.135 35.2649 194.247 44.9993C208.674 50.5917 218.012 64.3981 222.752 78.6589C231.285 104.297 232.614 137.607 219.744 161.864C215.599 169.659 210.388 179.096 214.865 187.922C216.858 191.854 220.653 194.405 224.133 196.869C230.498 201.396 235.325 206.272 238.158 213.664C240.414 219.554 240.833 226.212 239.382 232.347C238.368 236.681 236.059 240.246 237.983 244.615C239.452 247.918 242.775 249.875 245.433 252.095C249.472 255.45 251.676 259.051 253.722 263.944C255.103 267.265 256.222 270.76 257.027 274.273C257.184 274.989 259.195 286.296 255.995 283.273C255.61 282.906 254.421 283.413 254.823 283.815L254.858 283.832Z" fill="#14393A"/>
<path d="M151.406 217.351C151.406 217.351 171.622 211.357 206.194 149.246L208.223 145.244C216.092 135.212 221.058 122.367 221.635 108.194C223.017 74.6039 199.129 46.3445 168.317 45.0862C138.536 43.8628 109.734 68.6095 106.796 100.556C104.19 104.087 97.3703 115.813 93.5231 131.577C90.288 131.035 87.1577 131.262 87.1577 131.262C87.1577 131.262 78.4665 176.579 70.1076 201.448C61.7311 226.299 33.4716 236.698 -6.50452 237.694C-46.4631 238.69 -57.043 278.676 -57.043 278.676L211.808 281.787C211.615 248.18 152.368 245.226 144.184 239.651C136.699 234.548 138.133 215.744 138.431 212.58C142.435 214.415 146.755 216.041 151.389 217.369L151.406 217.351Z" fill="#F3ECE1"/>
<path d="M150.869 217.544C157.794 215.394 163.914 208.648 168.653 203.633C176.627 195.191 183.518 185.754 189.918 176.09C198.469 163.192 208.277 150.388 215.499 136.722C229.611 110.052 222.042 73.3807 197.333 55.1702C178.114 40.9969 152.373 42.1154 132.962 55.2576C120.231 63.891 110.7 77.0507 107.028 92.028C106.136 95.6806 105.891 99.0885 104.317 102.496C103.058 105.24 101.222 107.792 99.893 110.536C96.5354 117.491 95.4512 130.668 86.8124 131C86.655 131 85.9555 131.123 85.9206 131.367C83.4548 144.16 80.6918 156.918 77.6665 169.588C73.6619 186.366 70.7765 206.936 57.3462 219.099C38.3725 236.278 12.1239 235.195 -11.5889 237.747C-24.2148 239.092 -35.7739 244.929 -44.3602 254.279C-50.6032 261.095 -55.8319 269.798 -58.2802 278.781C-58.3151 278.904 -58.1578 278.921 -58.0703 278.921C20.3605 279.83 98.8088 280.739 177.24 281.647L210.763 282.032C210.973 282.032 211.812 281.927 211.812 281.612C210.973 258.351 184.462 250.225 165.715 245.471C159.193 243.811 148.071 243.356 142.999 238.463C138.243 233.867 138.138 224.954 138.155 218.872C138.155 216.897 137.841 213.699 139.03 213.472C140.831 213.14 148.858 217.194 150.257 217.614C150.536 217.701 151.656 217.229 151.306 217.124C146.899 215.779 142.632 214.206 138.418 212.353C138.155 212.248 137.211 212.371 137.193 212.738C136.442 221.371 135.445 236.086 144.608 240.7C151.935 244.388 161.518 245.017 169.37 247.201C180.789 250.347 193.223 254.419 201.949 262.825C206.653 267.369 208.384 271.826 210.203 277.872C211.235 281.28 212.127 280.634 210.273 281.542C207.685 282.783 201.197 281.438 198.382 281.403C191.212 281.315 184.042 281.245 176.872 281.158C155.45 280.913 134.028 280.669 112.606 280.406C67.1741 279.882 21.742 279.358 -23.7077 278.834C-30.7376 278.746 -37.7675 278.676 -44.8149 278.589C-47.3156 278.554 -53.9433 279.742 -56.1642 278.449C-57.4932 277.68 -56.5314 279.026 -56.8987 278.152C-57.4233 276.859 -54.4854 271.703 -53.9958 270.637C-49.0643 259.924 -41.2999 250.242 -30.9824 244.318C-19.1435 237.537 -6.36021 238.376 6.68536 237.17C15.1143 236.401 23.5432 235.108 31.6923 232.783C44.0209 229.288 56.297 223.363 64.1138 212.843C74.0291 199.491 76.5998 179.463 80.2547 163.611C82.0558 155.782 83.7521 147.935 85.3785 140.071C85.7807 138.078 85.8156 135.387 86.69 133.57C88.2114 130.371 87.5993 131.333 92.4958 131.839C92.7057 131.857 93.4576 131.752 93.5276 131.472C95.3288 124.569 97.5846 117.858 100.627 111.392C102.359 107.704 105.314 104.174 106.8 100.452C109.039 94.8592 108.899 88.3056 111.382 82.5209C114.233 75.8798 118.237 69.798 123.169 64.5027C144.556 41.5736 180.37 38.655 202.824 61.4268C221.99 80.8606 227.42 112.796 214.777 136.722C208.796 148.029 199.956 159.074 193.119 169.91C186.788 179.976 179.915 189.407 172.203 198.46C166.835 204.768 158.755 214.678 150.746 217.159C150.029 217.386 150.117 217.771 150.851 217.544H150.869Z" fill="#14393A"/>
<path d="M143.666 103.335C145.222 102.654 146.849 102.287 148.51 102.025C150.171 101.762 151.85 101.71 153.546 101.727C156.921 101.815 160.314 102.444 163.549 103.493C165.175 104.017 166.802 104.524 168.411 105.17C169.198 105.502 169.984 105.852 170.719 106.306C171.086 106.516 171.453 106.743 171.803 106.988C172.153 107.232 172.485 107.495 172.835 107.757L173.342 108.159L173.814 108.578C174.129 108.858 174.444 109.155 174.741 109.452C175.056 109.749 175.336 110.064 175.615 110.378C175.895 110.693 176.175 111.007 176.455 111.339C176.979 112.004 177.487 112.703 177.959 113.437C178.396 114.188 178.833 114.94 179.165 115.778L178.798 116.18C177.924 115.953 177.119 115.656 176.35 115.342C175.563 115.044 174.811 114.73 174.077 114.398C173.325 114.083 172.625 113.734 171.908 113.384C171.541 113.227 171.209 113.052 170.859 112.86C170.509 112.685 170.177 112.51 169.827 112.336C169.477 112.161 169.145 111.986 168.813 111.794C168.481 111.602 168.148 111.427 167.816 111.217C167.169 110.815 166.522 110.413 165.892 109.976C165.578 109.749 165.263 109.539 164.931 109.33C164.616 109.12 164.301 108.893 163.969 108.701L162.972 108.106C162.64 107.914 162.29 107.757 161.94 107.582C160.559 106.9 159.142 106.289 157.691 105.782C156.239 105.258 154.753 104.803 153.232 104.454C151.71 104.104 150.154 103.86 148.597 103.737C147.811 103.667 147.024 103.65 146.237 103.667C145.45 103.667 144.645 103.72 143.876 103.842L143.701 103.318L143.666 103.335Z" fill="#14393A"/>
<path d="M227.428 146.1C227.428 146.1 223.039 130.249 197.42 123.887L227.428 146.1Z" fill="#14393A"/>
<path d="M227.166 146.17C226.833 145.471 226.431 144.772 225.994 144.108C225.557 143.444 225.102 142.797 224.613 142.185C223.633 140.944 222.567 139.808 221.43 138.742C220.293 137.676 219.087 136.698 217.845 135.789C216.603 134.88 215.292 134.041 213.963 133.272C213.631 133.08 213.298 132.888 212.949 132.73L211.899 132.241C211.55 132.084 211.182 131.944 210.833 131.787C210.483 131.647 210.133 131.49 209.766 131.35C209.049 131.07 208.349 130.756 207.65 130.459C207.3 130.301 206.968 130.127 206.618 129.952C206.268 129.777 205.936 129.602 205.586 129.41C205.254 129.218 204.904 129.025 204.572 128.851C204.24 128.658 203.89 128.466 203.558 128.274C202.876 127.872 202.194 127.488 201.512 127.051C200.83 126.631 200.13 126.194 199.448 125.705C198.749 125.233 198.067 124.744 197.385 124.132L197.525 123.608C198.399 123.416 199.273 123.346 200.148 123.293C201.005 123.293 201.862 123.293 202.718 123.363C203.138 123.416 203.575 123.451 203.995 123.52C204.415 123.573 204.834 123.643 205.254 123.73C205.674 123.818 206.093 123.922 206.496 124.01L207.108 124.167L207.72 124.359C208.122 124.499 208.524 124.621 208.926 124.779C209.329 124.936 209.713 125.111 210.098 125.286C210.868 125.635 211.602 126.089 212.319 126.561C213.735 127.523 215.082 128.589 216.428 129.637C219.122 131.717 221.535 134.181 223.511 136.925C224.49 138.305 225.382 139.739 226.099 141.259C226.816 142.779 227.428 144.335 227.725 145.995L227.201 146.135L227.166 146.17Z" fill="#14393A"/>
<g style="mix-blend-mode:multiply">
<path d="M144.027 181.454C144.027 181.454 167.539 183.395 170.04 185.789C172.54 188.183 170.197 192.395 165.965 193.024C165.965 193.024 167.661 201.36 162.17 200.417C156.679 199.473 148.067 194.701 144.027 181.454Z" fill="#FF7D7D"/>
</g>
<ellipse cx="5.76665" cy="4.89631" rx="5.76665" ry="4.89631" transform="matrix(-0.48182 -0.876044 -0.891181 0.454117 209.834 144.989)" fill="#78A3AA"/>
<ellipse cx="5.4741" cy="4.5725" rx="5.4741" ry="4.5725" transform="matrix(-0.48182 -0.876044 -0.891181 0.454117 209.881 144.671)" fill="#4896A2"/>
<ellipse cx="3.67342" cy="3.37628" rx="3.67342" ry="3.37628" transform="matrix(-0.48182 -0.876044 -0.891181 0.454116 208.113 143.104)" fill="#232220"/>
<g filter="url(#filter0_f_2107_13295)">
<ellipse cx="0.860431" cy="0.979002" rx="0.860431" ry="0.979002" transform="matrix(-0.557217 -0.830182 -0.830753 0.556917 204.422 140.517)" fill="white"/>
</g>
<ellipse cx="1.16393" cy="1.08671" rx="1.16393" ry="1.08671" transform="matrix(-0.481818 -0.876045 -0.89118 0.454118 206.123 142.577)" fill="#C7C7C7" fill-opacity="0.8"/>
<path d="M198.151 134.934C195.964 135.124 192.58 136.71 192.58 136.71C195.878 136.616 197.454 136.97 198.893 137.083C200.333 137.195 202.414 137.765 203.225 138.165C204.035 138.564 204.78 139.007 205.751 140.329C206.813 141.773 206.964 142.518 207.153 143.936C207.341 145.354 207.344 145.957 206.834 146.822C206.199 147.899 205.356 148.993 201.945 148.725C198.535 148.458 190.595 141.282 191.416 142.3C192.237 143.318 195.387 147.06 197.099 148.299C198.812 149.539 200.23 149.933 201.841 150.059C203.451 150.186 205.882 149.653 205.882 149.653L207.027 149.079C208.041 149.751 209.438 150.05 210.637 150.276C211.845 150.503 212.682 150.315 213.802 149.982C214.922 149.648 216.327 148.904 216.327 148.904C216.327 148.904 214.833 149.35 213.998 149.274C213.162 149.198 212.611 148.713 211.686 148.34C210.825 147.582 210.253 146.859 209.392 146.101C208.53 145.344 208.573 144.722 208.573 144.722L210.423 145.469C210.885 145.656 212.065 146.029 213.243 145.844C214.422 145.66 215.362 145.41 215.941 145.122C216.668 144.759 218.365 142.654 218.365 142.654C218.365 142.654 216.77 143.77 215.739 144.209C215.378 144.363 214.827 144.637 213.708 144.67C212.66 144.702 212.255 144.73 211.475 144.219C210.533 143.601 209.162 143.353 209.162 143.353C209.162 143.353 209.666 143.421 209.998 143.428C210.899 143.448 211.821 143.234 212.7 142.947C213.438 142.707 213.825 142.486 214.478 142.093C215.338 141.575 216.452 140.53 216.452 140.53C216.452 140.53 215.424 141.189 214.674 141.385C213.553 141.678 212.498 141.581 211.42 141.381C210.559 141.221 209.052 140.463 208.557 139.961C208.19 139.59 208.074 138.855 207.153 137.937C205.914 136.702 205.525 136.14 203.549 135.358C201.573 134.575 200.339 134.744 198.151 134.934Z" fill="#14393A"/>
<path d="M145.137 182.175C148.719 182.175 150.885 182.536 155.938 183.257C159.548 183.773 161.833 184.199 164.456 184.653C165.698 184.863 167.184 184.95 168.304 185.544C172.133 187.537 169.44 191.748 165.838 192.605C165.576 192.675 165.261 192.902 165.331 193.216C165.558 194.387 165.838 195.96 165.488 197.149C164.316 201.063 160.679 199.857 157.951 198.564C151.428 195.471 145.109 184.653 145.109 181.814C144.917 181.22 142.751 180.516 142.944 181.093C145.497 188.957 152.233 199.298 161.239 200.749C163.512 201.116 165.366 200.854 166.397 198.582C166.94 197.393 166.712 196.083 166.835 194.842C166.87 194.545 166.52 193.496 166.66 193.234C166.905 192.832 167.044 193.496 167.464 193.129C169.44 191.416 173.2 189.878 171.294 186.401C170.262 184.496 167.691 184.234 165.768 183.867C159.123 182.591 144.563 180.461 142.944 180.371C142.314 180.336 143.531 182.14 144.387 182.175L145.137 182.175Z" fill="#14393A"/>
<path d="M166.329 192.657C158.25 189.634 141.14 181.093 139.063 175.157C138.73 174.808 137.524 175.28 137.891 175.682C140.779 182.536 157.305 190.333 165.577 193.409C166.014 193.566 167.063 192.937 166.346 192.675L166.329 192.657Z" fill="#14393A"/>
<path d="M185.392 68.1727C169.706 62.8249 152.254 68.2425 137.984 76.6662C130.832 80.8955 123.942 86.051 119.675 93.1814C115.775 99.7001 114.341 107.337 111.84 114.52C109.34 121.703 105.23 128.956 98.2701 132.014C101.453 123.8 104.671 115.167 103.516 106.446C102.345 97.7253 95.1224 89.1269 86.3438 89.7211C87.4629 88.9346 88.11 87.5365 88.0225 86.1908C88.0225 86.1908 113.939 34.513 174.69 40.9793L185.41 68.1901L185.392 68.1727Z" fill="white"/>
<path d="M185.392 68.1727C169.706 62.8249 152.254 68.2425 137.984 76.6662C130.832 80.8955 123.942 86.051 119.675 93.1814C115.775 99.7001 114.341 107.337 111.84 114.52C109.34 121.703 105.23 128.956 98.2701 132.014C101.453 123.8 104.671 115.167 103.516 106.446C102.345 97.7253 95.1224 89.1269 86.3438 89.7211C87.4629 88.9346 88.11 87.5365 88.0225 86.1908C88.0225 86.1908 113.939 34.513 174.69 40.9793L185.41 68.1901L185.392 68.1727Z" fill="#F3ECE1"/>
<path d="M185.39 68.1729C169.704 62.8251 152.251 68.2428 137.982 76.6664C130.829 80.8957 123.939 86.0513 119.672 93.1817C115.773 99.7004 114.339 107.338 111.838 114.52C109.337 121.703 105.228 128.956 98.268 132.014C100.262 126.859 102.29 121.528 103.217 116.111C103.217 116.111 105.857 96.3624 94.3858 96.6245C82.9141 96.8867 72.4741 122.088 84.9601 140.683" fill="#F3ECE1"/>
<path d="M185.769 67.8058C165.344 61.689 141.491 70.5321 126.19 84.6181C117.901 92.2553 115.523 101.553 112.095 111.881C110.731 115.988 109.262 120.095 106.849 123.73C105.835 125.006 104.821 126.299 103.806 127.575C99.8191 129.987 98.9797 129.358 101.236 125.67C101.166 122 103.736 117.911 104.034 113.978C104.663 105.607 101.306 91.8184 90.0787 97.4283C74.8997 104.996 77.1555 129.2 84.3778 140.945C84.6226 141.347 85.8467 140.927 85.5494 140.42C80.7929 132.678 78.8693 123.94 80.5655 114.922C81.265 111.235 82.5591 107.565 84.5177 104.349C87.5255 99.4206 95.0975 94.5971 100.029 99.8226C107.374 107.617 100.501 124.569 97.6332 132.084C97.4758 132.504 98.3677 132.399 98.5251 132.329C113.144 124.622 112.445 107.442 119.58 94.4748C130.947 73.8526 163.036 61.9861 185.018 68.5747C185.472 68.7145 186.504 68.033 185.769 67.8232V67.8058Z" fill="#14393A"/>
<path d="M184.17 67.7183C194.767 67.963 206.868 70.8466 211.642 80.3014C216.189 89.2668 212.149 100.015 207.97 109.137C203.773 118.26 199.366 128.711 203.266 137.974C205.452 143.182 209.946 146.991 213.339 151.5C216.731 156.009 219.057 162.283 216.276 167.194C225.143 160.728 228.168 149.036 230.021 138.218C233.746 116.355 234.988 93.1465 226.314 72.7341C217.64 52.3216 196.761 35.7539 174.709 38.2531L184.17 67.7009V67.7183Z" fill="#F3ECE1"/>
<path d="M174.705 38.253C197.369 34.4432 217.637 52.3216 226.31 72.734C234.984 93.1465 233.742 116.373 230.018 138.218C228.164 149.036 225.139 160.728 216.273 167.194C219.053 162.283 216.727 156.009 213.335 151.5C209.942 146.991 205.448 143.164 203.262 137.974C199.362 128.711 203.769 118.26 207.966 109.137C212.163 100.015 216.185 89.2668 211.638 80.3013C206.847 70.8466 194.763 67.963 184.166 67.7183C184.166 67.7183 161.537 46.8165 174.705 38.2705V38.253Z" fill="#F3ECE1"/>
<path d="M174.599 38.5326C210.221 33.7615 230.384 71.9125 232.045 102.094C232.92 117.945 231.486 135.684 226.449 150.854C225.19 154.663 223.546 158.91 220.941 162.004C220.189 163.314 219.122 164.293 217.776 164.94C217.933 164.153 218.055 163.367 218.125 162.58C216.989 159.435 217.181 156.498 215.327 153.388C214.173 151.43 212.652 149.735 211.2 148.022C204.555 140.158 200.935 134.041 203.191 123.433C204.852 115.639 209.207 108.77 211.812 101.308C215.887 89.6162 214.925 77.2603 202.754 71.2659C198.54 69.1862 193.835 68.225 189.184 67.7357C184.672 67.2638 184.165 67.124 181.227 63.8909C175.649 57.7392 165.803 45.4707 175.211 38.3403C175.736 37.9384 174.477 38.0607 174.232 38.2529C166.905 43.8104 170.857 52.2341 175.316 58.5081C177.292 61.2869 180.195 65.9181 183.256 67.6483C187.085 69.7979 194.08 68.8891 198.522 70.4795C208.647 74.0796 214.296 82.6256 212.722 93.4435C211.375 102.636 206.164 110.553 203.279 119.239C200.498 127.61 200.201 135.544 205.482 142.989C210.781 150.452 219.857 157.11 215.66 167.334C215.502 167.701 216.674 167.369 216.779 167.281C227.743 158.351 229.982 143.933 231.818 130.668C234.091 114.258 234.633 97.166 229.964 81.1051C222.952 56.9352 201.757 34.4256 174.827 38.0258C174.285 38.0957 173.725 38.6899 174.617 38.5675L174.599 38.5326Z" fill="#14393A"/>
<path d="M95.802 163.209C95.155 186.453 118.938 204.087 137.334 212.825C137.632 212.965 138.803 212.493 138.366 212.283C120.022 203.58 96.4315 185.999 97.0786 162.877C97.0786 162.615 95.8195 162.79 95.8195 163.209H95.802Z" fill="#14393A"/>
<path d="M96.0254 116.845C95.2559 112.545 92.8427 108.893 89.2403 106.464C88.943 106.271 87.8938 106.778 88.0511 106.883C91.6361 109.312 93.9969 112.93 94.7663 117.177C94.8188 117.421 96.0953 117.142 96.0254 116.845Z" fill="#14393A"/>
<path d="M95.1383 113.856C94.0541 112.318 92.2704 112.109 90.6265 113.052C87.8461 114.678 87.5313 119.291 87.3214 122.123C87.1291 124.866 86.9717 134.269 90.4866 135.44C91.6758 135.842 93.0048 135.125 93.2496 133.989C93.3196 133.692 92.078 133.867 91.9906 134.199C90.5916 133.867 89.8221 133.028 89.6997 131.665C89.3849 130.686 89.1401 129.69 88.9478 128.676C88.668 127.173 88.4931 125.618 88.4931 124.08C88.4931 122.07 88.6854 119.99 89.1051 118.033C89.28 117.229 91.0287 110.169 93.8442 114.188C94.0715 114.503 95.2257 114.013 95.1033 113.856H95.1383Z" fill="#14393A"/>
<path d="M86.041 248.879C86.041 248.879 93.718 259.715 105.452 250.225L86.041 248.879Z" fill="#F3ECE1"/>
<path d="M85.4674 249.159C90.6787 256.307 99.4748 255.38 105.875 250.504C106.557 249.98 105.525 249.578 105.036 249.945C99.1251 254.437 91.3082 255.031 86.6216 248.599C86.2894 248.145 85.0827 248.634 85.4674 249.141V249.159Z" fill="#14393A"/>
<path d="M65.7266 234.444C65.7266 234.444 70.693 241.661 72.9488 243.025L65.7266 234.444Z" fill="#F3ECE1"/>
<path d="M65.1471 234.688C66.0739 236.034 67.0357 237.345 68.0325 238.62C69.3091 240.281 70.6731 242.186 72.4568 243.322C72.8415 243.566 73.9957 243.025 73.4536 242.675C71.6349 241.504 70.2534 239.477 68.9593 237.799C68.05 236.611 67.1581 235.405 66.3187 234.164C66.0564 233.779 64.8323 234.216 65.1471 234.671V234.688Z" fill="#14393A"/>
<path d="M116.303 247.079C116.303 247.079 126.69 243.024 127.582 241.661L116.303 247.079Z" fill="#F3ECE1"/>
<path d="M116.53 247.236C118.437 246.485 120.325 245.698 122.196 244.877C124.015 244.073 126.866 243.234 128.177 241.626C128.439 241.294 127.233 241.451 127.023 241.714C125.764 243.286 122.826 244.108 121.042 244.877C119.398 245.593 117.755 246.275 116.093 246.922C115.254 247.254 116.041 247.428 116.548 247.236H116.53Z" fill="#14393A"/>
<path d="M97.3206 193.618C97.3031 189.948 96.1664 188.83 92.4766 188.847C96.1489 188.83 97.2681 187.694 97.2506 184.006C97.2681 187.676 98.4048 188.795 102.095 188.777C98.4223 188.795 97.3031 189.931 97.3206 193.618Z" fill="#E7B167"/>
<path d="M118.797 133.325C118.78 129.655 117.643 128.536 113.953 128.554C117.625 128.536 118.745 127.4 118.727 123.713C118.745 127.383 119.881 128.501 123.571 128.484C119.899 128.501 118.78 129.637 118.797 133.325Z" fill="#E7B167"/>
<g style="mix-blend-mode:multiply">
<path d="M126.844 126.719C126.792 120.217 124.798 118.243 118.293 118.295C124.798 118.243 126.774 116.25 126.722 109.749C126.774 116.25 128.768 118.225 135.273 118.173C128.768 118.225 126.792 120.217 126.844 126.719Z" fill="#F7CFD3"/>
</g>
<path d="M90.0863 175.111C91.153 174.22 92.7968 173.87 95.2276 173.853C92.7968 173.853 91.153 173.538 90.0688 172.664C90.3661 172 90.9082 171.319 91.6951 170.532C90.9082 171.319 90.2262 171.86 89.5792 172.175C88.6873 171.109 88.3376 169.466 88.3201 167.037C88.3201 169.466 88.0053 171.109 87.1309 172.192C86.4664 171.895 85.7844 171.354 84.9975 170.567C85.7844 171.354 86.3265 172.035 86.6413 172.682C85.5746 173.573 83.9307 173.923 81.5 173.94C83.9307 173.94 85.5745 174.255 86.6588 175.128C86.3615 175.793 85.8194 176.474 85.0324 177.261C85.8194 176.474 86.5014 175.932 87.1484 175.618C88.0403 176.684 88.39 178.327 88.4075 180.756C88.4075 178.327 88.7223 176.684 89.5966 175.6C90.2612 175.897 90.9432 176.439 91.7301 177.226C90.9432 176.439 90.4011 175.758 90.0863 175.111Z" fill="#EFCABA"/>
<path d="M196.268 162.073C196.565 162.108 196.862 162.126 197.159 162.126L196.722 162.895" stroke="#E7B167" stroke-width="0.607812" stroke-miterlimit="10" stroke-linecap="round"/>
<path d="M195.849 164.485L192.771 170.008" stroke="#E7B167" stroke-width="0.607812" stroke-miterlimit="10" stroke-linecap="round"/>
<path d="M192.336 170.794L191.899 171.563C191.899 171.563 191.654 171.353 191.27 170.951" stroke="#E7B167" stroke-width="0.607812" stroke-miterlimit="10" stroke-linecap="round"/>
<path d="M148.248 210.413C148.248 210.413 147.95 210.326 147.408 210.151" stroke="#E7B167" stroke-width="0.607812" stroke-miterlimit="10" stroke-linecap="round"/>
<path d="M106.243 173.416C106.138 173.136 106.05 172.857 105.963 172.577" stroke="#E7B167" stroke-width="0.607812" stroke-miterlimit="10" stroke-linecap="round"/>
</g>
<path d="M22.7552 174.849C31.4289 172.664 39.9977 168.138 46.7478 162.318C57.555 153.021 59.4611 141.783 62.1367 128.624C67.5228 102.199 79.2918 75.6177 100.749 58.386C119.39 43.4261 142.753 38.4803 166.239 39.3367C167.463 39.3891 169.736 37.589 167.533 37.5191C134.202 36.2958 102.498 47.4282 82.0198 74.639C74.0456 85.2472 68.1698 97.3584 63.9554 109.924C60.4055 120.497 59.1114 131.263 56.5408 142.011C52.746 157.897 37.6894 169.361 22.3005 173.224C20.3244 173.713 20.7441 175.321 22.7202 174.814L22.7552 174.849Z" fill="#FDFAFD"/>
<path d="M109.359 131.962C112.454 127.103 115.06 121.895 117.245 116.565C119.956 109.959 120.865 102.689 124.45 96.467C134.978 78.2391 156.557 69.5708 176.895 70.6019C177.542 70.6368 180.602 69.431 179.046 69.3611C160.771 68.4348 142.27 74.1146 129.067 87.1695C116.441 99.6477 115.497 117.911 106.141 132.573C105.984 132.818 108.869 132.748 109.359 131.962Z" fill="#FDFAFD"/>
<path d="M84.9244 113.157C85.6764 110.361 86.7606 107.582 88.1596 105.048C89.0689 103.423 90.3105 101.116 92.0942 100.277C94.5774 99.106 96.9557 102.025 98.3372 103.737C99.0717 104.646 102.219 103.493 101.38 102.426C97.4279 97.4632 91.727 96.4845 87.3727 101.57C84.5397 104.873 82.7735 109.347 81.6543 113.524C81.322 114.765 84.6271 114.293 84.9419 113.14L84.9244 113.157Z" fill="#FDFAFD"/>
<path d="M187.615 63.1922C193.508 63.6816 199.664 65.7613 204.648 68.9245C217.309 76.9637 218.008 91.2419 213.776 104.454C210.681 114.136 202.532 130.651 207.901 141.015C208.967 143.077 210.524 144.091 212.255 145.506C216.382 148.897 218.62 153.668 218.131 159.243C217.991 160.781 221.313 160.239 221.436 158.928C221.855 154.14 220.422 148.704 216.924 145.297C215.088 143.514 212.71 142.675 211.328 140.386C208.495 135.667 210.121 128.746 211.206 123.766C213.409 113.524 218.515 103.825 219.495 93.3566C221.261 74.7442 206.327 62.4932 188.822 61.0252C187.37 60.9028 185.412 63 187.633 63.1922H187.615Z" fill="#FDFAFD"/>
<path d="M282.707 136.244C281.902 151.745 269.801 162.284 265.219 176.439C260.952 189.582 264.24 204.996 257.053 217.212C249.725 229.708 233.515 232.172 221.816 238.953C211.376 244.999 205.36 255.59 196.529 263.455C179.654 278.484 161.012 265.989 142.143 266.041C125.67 266.076 108.113 277.104 92.654 267.422C81.9343 260.711 76.0235 248.617 65.8809 241.225C55.7032 233.815 42.3954 231.875 32.6549 223.801C20.6586 213.839 22.5822 197.603 20.3088 183.745C17.9306 169.361 7.70045 159.295 2.97886 145.926C-2.5996 130.162 7.14085 118.086 14.3456 104.961C21.5504 91.8535 20.0465 78.4316 23.2642 64.3281C27.0764 47.5508 41.521 42.8845 55.5459 36.4707C66.1782 31.5948 72.9982 24.2372 80.6577 15.5864C88.8767 6.32385 96.5362 -0.124955 110.771 1.02849C119.252 1.71007 127.384 4.78592 135.83 5.7646C150.187 7.42486 163.32 0.277005 177.52 0.678963C195.007 1.15083 202.877 17.7534 214.401 28.0995C225.051 37.6591 240.212 39.3368 251.124 48.3896C264.222 59.26 260.795 77.4529 264.222 92.2904C267.877 108.107 281.85 119.554 282.724 136.261C282.724 136.488 284.001 136.279 283.983 135.929C283.126 119.222 269.136 107.775 265.482 91.9584C262.229 77.8898 265.342 60.4134 253.992 49.4382C243.762 39.5465 228.251 38.061 217.304 29.1481C206.864 20.6545 200.341 6.69085 187.191 1.7625C171.767 -4.00472 155.154 6.44618 139.538 5.51993C125.915 4.71602 111.803 -2.93866 98.1101 1.41297C86.8832 4.97817 79.9932 15.5864 72.3337 23.7828C61.3167 35.5794 45.9628 37.694 33.3719 46.7643C22.1275 54.8734 21.2881 67.7011 19.9766 80.4414C19.0672 89.4068 17.4584 97.2537 13.0866 105.171C9.04698 112.493 3.88821 119.361 1.31757 127.401C-3.85869 143.566 7.42066 156.009 14.3107 169.554C21.6204 183.937 17.5633 200.749 24.3134 215.062C30.5214 228.222 45.8579 231.525 57.7667 237.537C71.2495 244.335 77.7373 257.915 89.6112 266.565C99.7189 273.923 110.858 272.105 122.348 269.606C134.886 266.88 145.571 266.233 158.162 269.012C164.982 270.515 171.924 272.385 178.954 271.931C191.615 271.127 199.607 261.794 207.441 252.846C213.754 245.629 220.119 239.949 228.968 235.877C235.84 232.714 243.133 230.284 249.446 226.02C264.083 216.163 262.159 199.229 264.712 183.78C267.615 166.303 283.039 153.755 283.966 135.894C283.966 135.702 282.724 135.859 282.707 136.226V136.244Z" fill="#14393A"/>
<path d="M282.707 136.244C281.902 151.763 269.801 162.283 265.219 176.439C260.97 189.529 264.328 205.118 257.053 217.212C249.533 229.708 233.62 232.119 221.816 238.953C211.376 244.999 205.36 255.59 196.529 263.455C179.007 279.043 159.176 265.01 139.52 266.128C123.957 267.02 107.326 276.667 92.6542 267.422C81.9519 260.676 76.0412 248.617 65.8811 241.225C55.7034 233.814 42.3606 231.91 32.6551 223.8C20.6588 213.786 22.5999 197.638 20.309 183.745C17.9307 169.361 7.70063 159.295 2.97905 145.926C-2.58193 130.197 7.14104 118.051 14.3458 104.961C21.5506 91.8534 19.9942 78.4141 23.2644 64.328C27.1466 47.5681 41.4687 42.9019 55.546 36.4531C66.1784 31.5772 72.9984 24.2196 80.6754 15.5863C88.8944 6.32377 96.5539 -0.125037 110.789 1.02841C119.27 1.70999 127.384 4.78584 135.848 5.76452C150.205 7.42478 163.338 0.294399 177.538 0.661404C195.043 1.11579 202.912 17.7534 214.419 28.0819C225.068 37.6415 240.335 39.1969 251.142 48.3721C264.17 59.4346 260.778 77.313 264.24 92.2903C267.895 108.107 281.867 119.554 282.742 136.261C282.742 136.471 284.018 136.261 284.001 135.929C283.144 119.222 269.154 107.774 265.499 91.9583C262.247 77.8898 265.359 60.4133 254.01 49.4381C243.78 39.5639 228.269 38.061 217.322 29.148C206.672 20.4972 199.957 5.81695 186.194 1.37794C171.033 -3.51546 154.857 6.25386 139.573 5.51985C125.88 4.87322 111.908 -2.95622 98.1452 1.41289C86.9183 4.97808 80.0283 15.5863 72.3689 23.7827C61.3693 35.5618 45.9979 37.7114 33.407 46.7817C22.1802 54.8558 21.2533 67.7185 20.0117 80.4413C19.1374 89.3893 17.4761 97.2886 13.1217 105.17C9.08214 112.493 3.92337 119.361 1.35273 127.4C-3.82353 143.584 7.45581 156.009 14.3458 169.554C21.6555 183.937 17.5985 200.749 24.3486 215.062C30.5566 228.222 45.893 231.525 57.8019 237.52C71.2846 244.318 77.7725 257.897 89.6464 266.548C99.7541 273.905 110.894 272.105 122.365 269.589C134.869 266.845 145.623 266.233 158.179 268.995C164.999 270.498 171.924 272.35 178.972 271.913C191.633 271.109 199.624 261.794 207.459 252.829C213.789 245.594 220.12 239.966 228.986 235.859C235.841 232.679 243.15 230.267 249.463 226.02C263.191 216.757 262.439 201.116 264.38 186.366C266.811 167.771 283.022 154.559 284.001 135.912C284.001 135.737 282.759 135.894 282.742 136.244H282.707Z" fill="#14393A"/>
<ellipse cx="8.18075" cy="7.06102" rx="8.18075" ry="7.06102" transform="matrix(0.996112 -0.0880945 0.119129 0.992879 154.396 114.993)" fill="#78A3AA"/>
<ellipse cx="7.33213" cy="6.35398" rx="7.33213" ry="6.35398" transform="matrix(0.996112 -0.0880945 0.119129 0.992879 155.223 115.527)" fill="#4896A2"/>
<ellipse cx="5.63773" cy="4.69593" rx="5.63773" ry="4.69593" transform="matrix(0.996112 -0.0880944 0.119129 0.992879 157.381 117.152)" fill="#232220"/>
<g filter="url(#filter1_f_2107_13295)">
<ellipse cx="163.879" cy="120.488" rx="2.16581" ry="1.44297" fill="white"/>
</g>
<ellipse cx="1.87924" cy="1.75346" rx="1.87924" ry="1.75346" transform="matrix(0.996112 -0.0880945 0.119129 0.992879 157.381 117.211)" fill="#C7C7C7"/>
<path d="M161.405 171.879C161.405 171.879 168.503 169.888 168.077 171.674C167.651 173.46 161.405 171.879 161.405 171.879Z" fill="#14393A"/>
<path d="M168.179 174.759C171.583 175.053 174.926 175.864 177.594 173.517C180.334 171.094 180.843 166.663 180.843 163.416C181.205 157.284 180.485 143.551 184.456 138.164C184.863 137.612 186.066 138.494 185.666 139.028C179.388 147.652 183.493 161.68 180.842 171.352C179.244 177.198 173.936 176.401 168.626 175.932C167.984 175.872 167.292 174.666 168.186 174.741L168.179 174.759Z" fill="#14393A"/>
<path d="M161.626 163.916C158.687 165.488 157.308 168.61 159.385 171.514C159.741 172.012 158.635 171.395 158.479 171.164C157.209 169.404 156.701 167.39 157.955 165.47C158.607 164.472 159.598 163.625 160.665 163.071C160.929 162.927 161.867 163.782 161.632 163.9L161.626 163.916Z" fill="#14393A"/>
<path d="M175.43 126.62C175.791 127.703 176.513 133.101 176.513 133.101C175.762 130.946 174.507 126.47 173.4 124.681C172.294 122.891 171.459 121.931 171.459 121.931C171.459 121.931 169.293 119.664 166.767 118.252C166.078 117.867 161.722 116.124 157.386 115.78C153.05 115.437 151.764 116.364 150.986 117.062C150.018 117.932 149.703 118.887 149.44 120.127C148.798 123.163 155.216 128.424 158.103 129.506C160.991 130.589 168.571 132.392 168.571 132.392C168.571 132.392 159.927 131.637 157.381 130.228C154.836 128.818 151.967 126.62 151.245 125.899L151.245 125.899C150.523 125.177 149.44 124.095 148.755 122.652C148.07 121.209 148.095 120.308 148.095 120.308L147.012 120.331C146.291 120.347 145.2 120.009 144.471 119.664C144.102 119.489 143.439 118.915 142.996 118.252C142.502 117.51 142.582 115.735 142.582 115.735C142.582 115.735 143.039 116.526 143.327 116.801C143.695 117.154 143.826 117.303 144.425 117.5C145.107 117.724 145.519 117.785 146.237 117.822C147.372 117.881 148.755 117.408 148.755 117.408L148.026 117.062C146.928 116.364 146.108 115.221 145.438 114.231C144.764 113.233 144.678 112.443 144.655 111.361C144.632 110.279 144.962 108.829 144.962 108.829C144.962 108.829 144.993 110.271 145.369 110.985C145.745 111.698 146.475 112.044 147.212 112.75C148.351 113.289 149.351 113.584 150.49 114.123C151.63 114.663 152.303 114.445 152.303 114.445L150.828 113.034C150.46 112.681 149.707 111.253 149.692 110.532C149.676 109.811 149.882 108.592 149.999 108C150.145 107.255 150.321 106.189 150.321 106.189C150.321 106.189 150.24 107.284 150.36 107.992C150.42 108.351 150.608 109.137 151.12 109.78C151.741 110.559 152.485 110.999 153.324 111.537C154.337 112.188 155.881 112.926 155.881 112.926C155.881 112.926 155.629 112.502 155.504 112.212C155.166 111.425 155.08 110.552 155.09 109.695C155.098 108.977 155.206 108.573 155.412 107.884C155.683 106.979 156.449 105.697 156.449 105.697C156.449 105.697 156.081 106.791 156.126 107.508C156.195 108.579 156.672 109.48 157.27 110.371C157.748 111.082 159.114 112.19 159.843 112.481C160.382 112.696 164.773 114.257 165.323 114.445C168.21 115.437 170.513 117.6 172.246 119.284C173.979 120.969 175.069 125.538 175.43 126.62Z" fill="#14393A"/>
<defs>
<filter id="filter0_f_2107_13295" x="198.221" y="135.485" width="9.81685" height="9.72554" filterUnits="userSpaceOnUse" color-interpolation-filters="sRGB">
<feFlood flood-opacity="0" result="BackgroundImageFix"/>
<feBlend mode="normal" in="SourceGraphic" in2="BackgroundImageFix" result="shape"/>
<feGaussianBlur stdDeviation="1.98204" result="effect1_foregroundBlur_2107_13295"/>
</filter>
<filter id="filter1_f_2107_13295" x="156.713" y="114.045" width="14.332" height="12.886" filterUnits="userSpaceOnUse" color-interpolation-filters="sRGB">
<feFlood flood-opacity="0" result="BackgroundImageFix"/>
<feBlend mode="normal" in="SourceGraphic" in2="BackgroundImageFix" result="shape"/>
<feGaussianBlur stdDeviation="2.5" result="effect1_foregroundBlur_2107_13295"/>
</filter>
</defs>
</svg>
