<svg width="24" height="16" viewBox="0 0 24 16" fill="none" xmlns="http://www.w3.org/2000/svg">
<path fill-rule="evenodd" clip-rule="evenodd" d="M1.6341 0.860521C1.26424 0.888875 0.906294 1.02783 0.625688 1.26835C0.306919 1.54158 0.109375 1.9302 0.109375 2.35509V13.6601C0.109375 14.085 0.306918 14.4736 0.625688 14.7468C0.942076 15.018 1.35678 15.1601 1.77604 15.1601H22.2277C22.647 15.1601 23.0617 15.018 23.3781 14.7468C23.6968 14.4736 23.8944 14.085 23.8944 13.6601V2.34009C23.8944 1.91521 23.6968 1.52658 23.3781 1.25335C23.0617 0.982163 22.647 0.840088 22.2277 0.840088H1.77604C1.72674 0.840088 1.6791 0.847224 1.6341 0.860521ZM1.89808 1.84009C1.85902 1.84989 1.81814 1.85509 1.77604 1.85509C1.57646 1.85509 1.39768 1.92373 1.27648 2.02761C1.15766 2.12945 1.10938 2.24954 1.10938 2.35509V13.6601C1.10938 13.7656 1.15766 13.8857 1.27648 13.9876C1.39768 14.0914 1.57646 14.1601 1.77604 14.1601H22.2277C22.4273 14.1601 22.6061 14.0914 22.7273 13.9876C22.8461 13.8857 22.8944 13.7656 22.8944 13.6601V2.34009C22.8944 2.23454 22.8461 2.11445 22.7273 2.01261C22.6061 1.90873 22.4273 1.84009 22.2277 1.84009H1.89808ZM2.43232 2.99832C2.57965 2.76476 2.88842 2.69487 3.12198 2.8422L12.0019 8.44391L20.8818 2.8422C21.1153 2.69487 21.4241 2.76476 21.5714 2.99832C21.7188 3.23187 21.6489 3.54064 21.4153 3.68797L12.2686 9.45797C12.1057 9.56079 11.8981 9.56079 11.7351 9.45797L2.58844 3.68797C2.35488 3.54064 2.28499 3.23187 2.43232 2.99832Z" fill="#BA7169"/>
</svg>
