<svg width="24" height="24" viewBox="0 0 24 24" fill="none" xmlns="http://www.w3.org/2000/svg">
<path d="M21.9639 2.73935C21.8992 2.68345 21.8205 2.6463 21.7362 2.63192C21.652 2.61754 21.5653 2.62649 21.4858 2.65779L2.48642 10.0931C2.29274 10.1683 2.12874 10.3044 2.01914 10.4809C1.90955 10.6574 1.8603 10.8647 1.87881 11.0717C1.89733 11.2786 1.9826 11.4739 2.12179 11.6282C2.26098 11.7824 2.44653 11.8872 2.65048 11.9268L7.87611 12.9525V18.75C7.87607 18.9743 7.94309 19.1935 8.06854 19.3794C8.194 19.5653 8.37217 19.7095 8.58017 19.7934C8.71402 19.8471 8.85688 19.8748 9.00111 19.875C9.15206 19.8746 9.30141 19.8439 9.44024 19.7846C9.57908 19.7254 9.70457 19.6388 9.80923 19.53L12.4342 16.8112L16.4655 20.3465C16.6698 20.5268 16.9327 20.6267 17.2052 20.6278C17.3242 20.6273 17.4424 20.6087 17.5558 20.5725C17.7414 20.5137 17.9083 20.4073 18.0399 20.2639C18.1715 20.1204 18.2632 19.9449 18.3058 19.755L22.1139 3.19872C22.133 3.11575 22.1291 3.02915 22.1027 2.94822C22.0763 2.86728 22.0283 2.79508 21.9639 2.73935ZM2.62611 11.0043C2.62061 10.959 2.63082 10.9131 2.65505 10.8744C2.67927 10.8357 2.71605 10.8064 2.75923 10.7915L19.1327 4.38372L8.16392 12.2447L2.79579 11.1909C2.75029 11.1842 2.70851 11.162 2.67757 11.128C2.64663 11.094 2.62844 11.0503 2.62611 11.0043ZM9.27017 19.0087C9.21832 19.0621 9.15176 19.0989 9.07894 19.1144C9.00613 19.1298 8.93037 19.1232 8.8613 19.0955C8.79223 19.0677 8.73299 19.0201 8.6911 18.9585C8.64922 18.897 8.62659 18.8244 8.62611 18.75V13.4718L11.868 16.3125L9.27017 19.0087ZM17.5745 19.5843C17.56 19.648 17.5292 19.7068 17.485 19.7548C17.4408 19.8029 17.3848 19.8386 17.3226 19.8584C17.2604 19.8782 17.1941 19.8814 17.1302 19.8677C17.0664 19.854 17.0072 19.8239 16.9586 19.7803L8.85392 12.6731L21.2008 3.82497L17.5745 19.5843Z" fill="#BA7169"/>
</svg>
