<svg width="40" height="40" viewBox="0 0 40 40" fill="none" xmlns="http://www.w3.org/2000/svg">
<g clip-path="url(#clip0_38_12623)">
<path d="M38.0509 27.3933C38.8884 25.2417 39.3361 22.8879 39.3361 20.433C39.3361 17.6749 38.7585 15.0467 37.7188 12.6641" stroke="#DF836E" stroke-width="1.5" stroke-linecap="round" stroke-linejoin="round"/>
<path d="M19.5547 19.7978C19.5643 19.7978 19.5739 19.7978 19.5836 19.7978C19.5932 19.7015 19.598 19.6101 19.598 19.5234C19.5788 19.5234 19.5643 19.5234 19.5547 19.5234C19.5547 19.6101 19.5547 19.7015 19.5547 19.7978Z" stroke="#DF836E" stroke-width="1.5" stroke-linecap="round" stroke-linejoin="round"/>
<path d="M19.5691 20.4332C19.5691 20.2311 19.5836 20.0145 19.5836 19.7979C19.5739 19.7979 19.5643 19.7979 19.5547 19.7979C19.5691 20.0145 19.5691 20.2311 19.5691 20.4332Z" stroke="#DF836E" stroke-width="1.5" stroke-linecap="round" stroke-linejoin="round"/>
<path d="M19.4975 19.5232C12.7105 19.3499 6.78988 15.711 3.45414 10.2958C1.77905 7.59543 0.76822 4.44742 0.609375 1.06836C4.06064 1.14056 7.2953 2.12251 10.0823 3.76872C13.6491 5.89146 16.465 9.12612 18.0823 12.9817C18.0823 12.9817 10.1256 15.5232 5.46136 6.41132" stroke="#DF836E" stroke-width="1.5" stroke-linecap="round" stroke-linejoin="round"/>
<path d="M38.9439 1.0542C35.4927 1.0542 32.258 1.96395 29.4566 3.55239C23.8104 6.72929 19.9114 12.6499 19.5938 19.5235C19.7093 19.5235 19.8392 19.5235 19.9548 19.5235C26.9439 19.5235 33.0522 15.8412 36.4746 10.2961C38.1353 7.59571 39.1605 4.4477 39.3194 1.06864C39.1894 1.06864 39.0739 1.0542 38.9439 1.0542Z" stroke="#DF836E" stroke-width="1.5" stroke-linecap="round" stroke-linejoin="round"/>
<path d="M19.5547 19.9136C19.5643 19.9136 19.5739 19.9136 19.5836 19.9136C19.5932 20.0002 19.598 20.0917 19.598 20.1879C19.5788 20.1879 19.5643 20.1879 19.5547 20.1879C19.5547 20.0917 19.5547 20.0002 19.5547 19.9136Z" stroke="#DF836E" stroke-width="1.5" stroke-linecap="round" stroke-linejoin="round"/>
<path d="M19.5691 19.2637C19.5691 19.4803 19.5836 19.6969 19.5836 19.9135C19.5739 19.9135 19.5643 19.9135 19.5547 19.9135C19.5691 19.6969 19.5691 19.4803 19.5691 19.2637Z" stroke="#DF836E" stroke-width="1.5" stroke-linecap="round" stroke-linejoin="round"/>
<path d="M3.45414 29.4149C1.77905 32.1153 0.76822 35.2633 0.609375 38.6424C4.06064 38.5702 7.2953 37.5882 10.0823 35.942C15.5119 32.7074 19.2375 26.8879 19.5552 20.1875C12.7393 20.3319 6.78988 23.9853 3.45414 29.4149Z" stroke="#DF836E" stroke-width="1.5" stroke-linecap="round" stroke-linejoin="round"/>
<path d="M20.8979 26.3105C22.5297 30.4982 25.5766 33.9784 29.4611 36.1589C32.2625 37.7473 35.4972 38.6427 38.9484 38.6427C39.0784 38.6427 39.1939 38.6427 39.3239 38.6427C39.165 35.2636 38.1398 32.1156 36.4791 29.4152C33.0567 23.8701 26.9484 20.1733 19.9593 20.1733C19.9208 20.1733 19.8823 20.1782 19.8438 20.1878" stroke="#DF836E" stroke-width="1.5" stroke-linecap="round" stroke-linejoin="round"/>
<path d="M1.80864 27.3933C0.971091 25.2417 0.523438 22.8879 0.523438 20.433C0.523438 17.6749 1.10105 15.0467 2.14077 12.6641" stroke="#DF836E" stroke-width="1.5" stroke-linecap="round" stroke-linejoin="round"/>
<path d="M12.5625 1.90629C14.7141 1.08319 17.0679 0.621094 19.5228 0.621094C22.2809 0.621094 24.9091 1.19871 27.2917 2.23842" stroke="#DF836E" stroke-width="1.5" stroke-linecap="round" stroke-linejoin="round"/>
<path d="M12.5625 38.1515C14.7141 38.989 17.0679 39.4367 19.5228 39.4367C22.2809 39.4367 24.9091 38.859 27.2917 37.8193" stroke="#DF836E" stroke-width="1.5" stroke-linecap="round" stroke-linejoin="round"/>
</g>
<defs>
<clipPath id="clip0_38_12623">
<rect width="39.8556" height="40" fill="white"/>
</clipPath>
</defs>
</svg>
