<svg width="16" height="13" viewBox="0 0 16 13" fill="none" xmlns="http://www.w3.org/2000/svg">
<path d="M2.12864 13V5.45257L0.506579 6.68241L0 6.0287L7.99958 0L16 6.0287L15.4926 6.67829L13.8705 5.45257V13H2.12864ZM2.96734 12.1746H13.0318V4.82857L7.99958 1.05238L2.96734 4.82857V12.1746ZM4.64476 8.68318C4.47142 8.68318 4.32046 8.61989 4.19185 8.49333C4.06325 8.36677 3.99895 8.2182 3.99895 8.04762C3.99895 7.87704 4.06325 7.72847 4.19185 7.6019C4.32046 7.47534 4.47142 7.41206 4.64476 7.41206C4.81809 7.41206 4.96906 7.47534 5.09766 7.6019C5.22626 7.72847 5.29056 7.87704 5.29056 8.04762C5.29056 8.2182 5.22626 8.36677 5.09766 8.49333C4.96906 8.61989 4.81809 8.68318 4.64476 8.68318ZM7.99958 8.68318C7.82625 8.68318 7.67528 8.61989 7.54668 8.49333C7.41808 8.36677 7.35378 8.2182 7.35378 8.04762C7.35378 7.87704 7.41808 7.72847 7.54668 7.6019C7.67528 7.47534 7.82625 7.41206 7.99958 7.41206C8.17291 7.41206 8.32388 7.47534 8.45248 7.6019C8.58108 7.72847 8.64538 7.87704 8.64538 8.04762C8.64538 8.2182 8.58108 8.36677 8.45248 8.49333C8.32388 8.61989 8.17291 8.68318 7.99958 8.68318ZM11.3544 8.68318C11.1811 8.68318 11.0301 8.61989 10.9015 8.49333C10.7729 8.36677 10.7086 8.2182 10.7086 8.04762C10.7086 7.87704 10.7729 7.72847 10.9015 7.6019C11.0301 7.47534 11.1811 7.41206 11.3544 7.41206C11.5277 7.41206 11.6787 7.47534 11.8073 7.6019C11.9359 7.72847 12.0002 7.87704 12.0002 8.04762C12.0002 8.2182 11.9359 8.36677 11.8073 8.49333C11.6787 8.61989 11.5277 8.68318 11.3544 8.68318Z" fill="#665D5D"/>
</svg>
