<svg width="26" height="16" viewBox="0 0 26 16" fill="none" xmlns="http://www.w3.org/2000/svg">
<path fill-rule="evenodd" clip-rule="evenodd" d="M0.595303 0.706373C0.689362 0.576732 0.839836 0.5 1 0.5H5.29375C5.48635 0.5 5.66182 0.610618 5.74487 0.784385C6.00397 1.32648 6.25663 1.87667 6.50713 2.42214C7.09135 3.69433 7.66377 4.94082 8.27843 5.99883C8.71427 6.74903 9.15317 7.37052 9.60555 7.81536C9.86288 8.0684 10.1144 8.25441 10.3625 8.37687V2.93934L9.04869 1.31436C8.92755 1.16454 8.90328 0.958439 8.98629 0.784571C9.06931 0.610702 9.24483 0.5 9.4375 0.5H15.4063C15.6824 0.5 15.9063 0.723858 15.9063 1V7.1456C16.7347 6.38358 17.3591 5.49896 17.9215 4.55047C18.2166 4.05276 18.4903 3.54527 18.7695 3.02752C18.8368 2.90268 18.9044 2.77725 18.9728 2.65121C19.3217 2.0078 19.6857 1.35468 20.1014 0.724624C20.194 0.584386 20.3507 0.5 20.5188 0.5H24.6313C24.7864 0.5 24.9327 0.572011 25.0274 0.694923C25.1221 0.817835 25.1543 0.977722 25.1147 1.12771C24.3336 4.08411 22.8153 6.14719 21.3534 8.13344C21.2732 8.24249 21.1931 8.35131 21.1133 8.46003C23.1237 10.2373 24.7329 12.4247 25.8313 14.8769C25.9006 15.0316 25.8868 15.2108 25.7946 15.3531C25.7025 15.4954 25.5445 15.5812 25.375 15.5812H20.85C20.7301 15.5812 20.6142 15.5382 20.5234 15.4598C20.0522 15.0533 19.6455 14.6073 19.267 14.1766C19.1902 14.0892 19.1148 14.0028 19.0404 13.9175C18.742 13.5752 18.4585 13.2501 18.1537 12.9444C17.53 12.3188 16.8492 11.8089 15.9063 11.5477V15.0812C15.9063 15.3331 15.719 15.5456 15.4692 15.5773C10.4537 16.2136 7.08115 13.7531 4.79963 10.5827C2.60169 7.52838 1.37521 3.76491 0.594639 1.3697C0.570912 1.2969 0.547597 1.22535 0.524679 1.15513C0.474984 1.00287 0.501243 0.836013 0.595303 0.706373ZM1.68925 1.5C2.47492 3.89629 3.63984 7.25898 5.61131 9.99857C7.68377 12.8785 10.6058 15.0187 14.9063 14.6326V10.9312C14.9063 10.7855 14.9699 10.647 15.0804 10.552C15.191 10.457 15.3375 10.415 15.4816 10.437C17.0151 10.6708 18.0245 11.3985 18.8619 12.2384C19.1926 12.5701 19.5038 12.927 19.8042 13.2717C19.8761 13.3542 19.9474 13.436 20.0182 13.5165C20.3497 13.8939 20.6782 14.2538 21.0394 14.5812H24.5845C23.4969 12.4123 21.9771 10.4852 20.1157 8.9202C19.9149 8.75135 19.8788 8.45598 20.0329 8.24368C20.2041 8.00795 20.3755 7.77481 20.546 7.54279C21.8988 5.70208 23.1997 3.93203 23.9662 1.5H20.7908C20.4583 2.02369 20.1551 2.56872 19.8518 3.12789C19.786 3.2493 19.7201 3.37161 19.6538 3.49452C19.3738 4.01372 19.0882 4.54353 18.7817 5.06047C18.0193 6.34623 17.1017 7.60004 15.6963 8.60101C15.5439 8.70959 15.3435 8.72394 15.1772 8.63818C15.0108 8.55242 14.9063 8.38092 14.9063 8.19375V1.5H10.4847L11.2513 2.44814C11.3233 2.53712 11.3625 2.64808 11.3625 2.7625V9.04375C11.3625 9.18641 11.3016 9.32228 11.195 9.41715C11.0885 9.51203 10.9465 9.55688 10.8048 9.54041C10.0777 9.45591 9.44897 9.06387 8.90441 8.52839C8.36051 7.99355 7.86933 7.28534 7.41376 6.50117C6.77385 5.3997 6.1682 4.08104 5.57462 2.78867C5.37452 2.35302 5.1758 1.92035 4.9776 1.5H1.68925Z" fill="#BA7169"/>
</svg>
