<svg width="22" height="22" viewBox="0 0 22 22" fill="none" xmlns="http://www.w3.org/2000/svg">
<path fill-rule="evenodd" clip-rule="evenodd" d="M10.8523 0.500001L10.8533 0.5C12.5908 0.501665 14.3004 0.940534 15.8237 1.77621C20.8376 4.5266 22.6714 10.82 19.9216 15.8338C17.1996 20.7967 11.0048 22.6444 6.0172 20.0145L1.53727 20.7435C1.37856 20.7693 1.21711 20.7173 1.10341 20.6036C0.98971 20.4899 0.93763 20.3284 0.963455 20.1697L1.69247 15.6896C0.911432 14.2055 0.50182 12.5532 0.500006 10.8744C0.493746 5.15096 5.12885 0.506261 10.8523 0.500001ZM15.3428 2.65296C13.9667 1.89809 12.4224 1.50159 10.8528 1.5C5.68188 1.50593 1.49435 5.70238 1.50001 10.8733C1.5017 12.4425 1.89773 13.9861 2.65171 15.3623C2.70526 15.46 2.72462 15.5728 2.70672 15.6828L2.06199 19.645L6.02416 19.0002C6.13424 18.9823 6.24714 19.0017 6.34492 19.0554C10.8741 21.5397 16.5606 19.8824 19.0448 15.3529C21.5292 10.8232 19.8723 5.13766 15.3428 2.65296ZM5.90704 4.97827C5.91326 4.97803 5.91949 4.97792 5.92571 4.97792H8.61155C8.86571 4.97792 9.10947 5.07888 9.28919 5.25861C9.46891 5.43833 9.56988 5.68208 9.56988 5.93625V5.94855C9.55658 6.48917 9.64603 7.02733 9.83369 7.53439C9.96903 7.82863 9.99704 8.16131 9.91234 8.47447C9.82975 8.77979 9.64527 9.04712 9.3903 9.2326L8.7497 9.85758C9.11523 10.4976 9.56749 11.0847 10.0941 11.6021L10.1045 11.6127C10.6171 12.1472 11.2008 12.6078 11.8387 12.9817L12.493 12.311C12.7362 12.0677 12.9878 11.8661 13.2982 11.7955C13.6144 11.7235 13.899 11.81 14.1288 11.8897L14.1406 11.8938C14.653 12.0861 15.1976 12.1782 15.7447 12.1647C15.7565 12.1644 15.7684 12.1646 15.7802 12.1651C16.0244 12.1765 16.2556 12.2786 16.4284 12.4515C16.6013 12.6243 16.7034 12.8555 16.7148 13.0997C16.7151 13.1074 16.7153 13.1152 16.7153 13.1229V15.8088C16.7153 15.8137 16.7152 15.8186 16.7151 15.8236C16.715 15.8264 16.7149 15.8292 16.7148 15.832C16.7034 16.0762 16.6013 16.3074 16.4284 16.4802C16.2556 16.6531 16.0244 16.7552 15.7802 16.7665C15.7652 16.7672 15.7502 16.7673 15.7352 16.7666C12.9149 16.6437 10.2415 15.4746 8.23663 13.4872L8.23399 13.4845C6.2432 11.4815 5.0733 8.80644 4.95408 5.98486C4.95372 5.97639 4.95358 5.96791 4.95365 5.95943C4.95585 5.70465 5.05616 5.46052 5.23372 5.27779C5.41128 5.09506 5.65243 4.98778 5.90704 4.97827ZM5.95474 5.97792C6.07162 8.53656 7.13618 10.9607 8.94195 12.7783C10.7551 14.5749 13.1674 15.6379 15.7153 15.7646V13.1655C15.0603 13.1749 14.4092 13.062 13.7954 12.8325C13.5808 12.7585 13.5361 12.7669 13.5201 12.7706C13.4983 12.7755 13.4157 12.8029 13.2022 13.016L12.2878 13.9533C12.1333 14.1117 11.8931 14.1497 11.6972 14.0467C10.8392 13.5957 10.0594 13.0093 9.3879 12.3102C8.70003 11.6332 8.12518 10.8503 7.68526 9.99124C7.58531 9.79607 7.62419 9.55856 7.78114 9.40544L8.72072 8.48878C8.74226 8.46777 8.76564 8.44874 8.7906 8.43194C8.86733 8.38026 8.92287 8.30266 8.94703 8.21336C8.97118 8.12405 8.96234 8.02904 8.92212 7.94573C8.91554 7.9321 8.90958 7.91819 8.90426 7.90402C8.67322 7.28839 8.55955 6.63509 8.56898 5.97792H5.95474Z" fill="#BA7169"/>
</svg>
