<svg width="95" height="84" viewBox="0 0 95 84" fill="none" xmlns="http://www.w3.org/2000/svg">
<path d="M0.000732422 0.788086V12.0539L82.1799 12.0539V35.911C82.1799 35.911 82.1799 45.1887 78.5977 49.1649C75.0154 53.1411 70.8186 53.2548 67.851 53.8038C64.2688 54.4665 53.5222 53.1411 53.5222 53.1411V64.4069C53.5222 64.4069 69.795 67.0586 78.5977 63.0815C83.0737 61.0592 85.5159 59.3899 88.6278 55.7919C94.3594 49.1649 93.6429 37.2364 93.6429 37.2364L94.3594 0.788086L0.000732422 0.788086Z" fill="#D8958E"/>
<path d="M94.3586 83.2124V71.9466L12.1795 71.9466L12.1795 48.0895C12.1795 48.0895 12.1795 38.8118 15.7617 34.8356C19.3439 30.8594 23.5408 30.7457 26.5084 30.1967C30.0906 29.534 40.9324 30.8488 40.9324 30.8488V19.5761C40.9324 19.5761 24.5643 16.9419 15.7617 20.919C11.2857 22.9413 8.84344 24.6106 5.73153 28.2086C0 34.8356 0.716442 46.7641 0.716442 46.7641L0 83.2124L94.3586 83.2124Z" fill="#D8958E"/>
<path d="M53.5469 15.8184H63.9599L64.4939 55.8072C64.4939 55.8072 61.3479 55.923 58.5444 55.406C55.7409 54.889 53.5469 54.7373 53.5469 54.7373V15.8184Z" fill="#D8958E"/>
<path d="M29.9844 67.9395H40.3974L40.9314 27.9482C40.9314 27.9482 37.7854 27.8436 34.9819 28.3604C32.1784 28.8773 29.9844 29.029 29.9844 29.029V67.9395Z" fill="#D8958E"/>
</svg>
