<svg width="40" height="40" viewBox="0 0 40 40" fill="none" xmlns="http://www.w3.org/2000/svg">
<g clip-path="url(#clip0_38_12610)">
<path d="M11.9904 8.10889C11.9904 8.10889 10.5282 18.2962 21.1143 21.5832C21.9964 10.5379 11.9904 8.10889 11.9904 8.10889Z" stroke="#DF836E" stroke-width="1.5" stroke-linecap="round" stroke-linejoin="round"/>
<path d="M29.9851 37.4865C29.9851 37.4865 38.1664 33.7644 39.3144 22.5257C40.4745 11.2992 33.2359 5.98193 33.2359 5.98193C33.2359 5.98193 25.0546 9.70399 23.8945 20.9427C23.7374 22.5137 23.7374 23.9759 23.8703 25.3173" stroke="#DF836E" stroke-width="1.5" stroke-linecap="round" stroke-linejoin="round"/>
<path d="M32.3754 36C32.3754 36 30.4781 27.2145 19.7591 23.6858C9.02799 20.1571 2.29688 26.1027 2.29688 26.1027C2.29688 26.1027 4.18207 34.8761 14.9132 38.4169C25.6322 41.9456 32.3754 36 32.3754 36Z" stroke="#DF836E" stroke-width="1.5" stroke-linecap="round" stroke-linejoin="round"/>
<path d="M32.1124 35.8306L31.8828 17.6675" stroke="#DF836E" stroke-width="1.5" stroke-linecap="round" stroke-linejoin="round"/>
<path d="M31.6619 35.6011L13.2812 30.0664" stroke="#DF836E" stroke-width="1.5" stroke-linecap="round" stroke-linejoin="round"/>
<path d="M0.751699 23.541C0.546261 22.405 0.4375 21.2328 0.4375 20.0243C0.4375 14.2237 2.96318 9.00319 6.98735 5.41406" stroke="#DF836E" stroke-width="1.5" stroke-linecap="round" stroke-linejoin="round"/>
<path d="M10.3828 2.97282C13.2348 1.35349 16.5339 0.435059 20.0384 0.435059C24.123 0.435059 27.9055 1.67977 31.0475 3.80666" stroke="#DF836E" stroke-width="1.5" stroke-linecap="round" stroke-linejoin="round"/>
</g>
<defs>
<clipPath id="clip0_38_12610">
<rect width="39.8792" height="40" fill="white"/>
</clipPath>
</defs>
</svg>
