<svg width="1600" height="336" viewBox="0 0 1600 336" fill="none" xmlns="http://www.w3.org/2000/svg">
<g clip-path="url(#clip0_2050_5543)">
<rect width="1600" height="336" fill="#EFCABA"/>
<g opacity="0.5">
<circle cx="122" cy="25" r="75" fill="#D8958E"/>
<circle cx="256" cy="230" r="75" fill="#D8958E"/>
<circle cx="46" cy="168" r="46" fill="#E5A3AA"/>
<circle cx="242" cy="89" r="46" fill="#E5A3AA"/>
<path d="M242 158.5C242 158.5 208.421 195 167 195C125.579 195 92 158.5 92 158.5C92 158.5 125.579 122 167 122C208.421 122 242 158.5 242 158.5Z" fill="#F2E4E3"/>
<path d="M102.5 186C102.5 186 139 219.579 139 261C139 302.421 102.5 336 102.5 336C102.5 336 66 302.421 66 261C66 219.579 102.5 186 102.5 186Z" fill="#F2E4E3"/>
<path d="M0 100C19.8912 100 38.9678 92.0982 53.033 78.033C67.0982 63.9678 75 44.8912 75 25C75 5.10877 67.0982 -13.9678 53.033 -28.033C38.9678 -42.0982 19.8912 -50 7.62939e-06 -50L0 25L0 100Z" fill="#FBF9F4"/>
<path d="M256 305C275.891 305 294.968 297.098 309.033 283.033C323.098 268.968 331 249.891 331 230C331 210.109 323.098 191.032 309.033 176.967C294.968 162.902 275.891 155 256 155L256 230V305Z" fill="#FBF9F4"/>
</g>
<g opacity="0.5">
<circle cx="479" cy="228" r="75" transform="rotate(-90 479 228)" fill="#D8958E"/>
<circle cx="684" cy="94" r="75" transform="rotate(-90 684 94)" fill="#D8958E"/>
<circle cx="622" cy="304" r="46" transform="rotate(-90 622 304)" fill="#E5A3AA"/>
<circle cx="543" cy="108" r="46" transform="rotate(-90 543 108)" fill="#E5A3AA"/>
<path d="M612.5 108C612.5 108 649 141.579 649 183C649 224.421 612.5 258 612.5 258C612.5 258 576 224.421 576 183C576 141.579 612.5 108 612.5 108Z" fill="#F2E4E3"/>
<path d="M640 247.5C640 247.5 673.579 211 715 211C756.421 211 790 247.5 790 247.5C790 247.5 756.421 284 715 284C673.579 284 640 247.5 640 247.5Z" fill="#F2E4E3"/>
<path d="M554 350C554 330.109 546.098 311.032 532.033 296.967C517.968 282.902 498.891 275 479 275C459.109 275 440.032 282.902 425.967 296.967C411.902 311.032 404 330.109 404 350L479 350H554Z" fill="#FBF9F4"/>
<path d="M759 94C759 74.1088 751.098 55.0322 737.033 40.967C722.968 26.9018 703.891 19 684 19C664.109 19 645.032 26.9018 630.967 40.967C616.902 55.0322 609 74.1088 609 94L684 94H759Z" fill="#FBF9F4"/>
</g>
<g opacity="0.5">
<circle cx="958.237" cy="19.0443" r="72.0443" fill="#D8958E"/>
<circle cx="885.231" cy="156.409" r="44.1872" fill="#E5A3AA"/>
<path d="M1073.51 147.283C1073.51 147.283 1041.25 182.345 1001.46 182.345C961.674 182.345 929.419 147.283 929.419 147.283C929.419 147.283 961.674 112.222 1001.46 112.222C1041.25 112.222 1073.51 147.283 1073.51 147.283Z" fill="#F2E4E3"/>
<path d="M939.505 173.699C939.505 173.699 974.567 205.955 974.567 245.744C974.567 285.533 939.505 317.788 939.505 317.788C939.505 317.788 904.443 285.533 904.443 245.744C904.443 205.955 939.505 173.699 939.505 173.699Z" fill="#F2E4E3"/>
<path d="M841.045 91.0887C860.152 91.0887 878.477 83.4983 891.988 69.9874C905.499 56.4764 913.089 38.1517 913.089 19.0443C913.089 -0.0630035 905.499 -18.3878 891.988 -31.8987C878.477 -45.4096 860.152 -53 841.045 -53L841.045 19.0443V91.0887Z" fill="#FBF9F4"/>
</g>
<g opacity="0.5">
<circle cx="1513" cy="65" r="75" fill="#D8958E"/>
<circle cx="1647" cy="270" r="75" fill="#D8958E"/>
<circle cx="1437" cy="208" r="46" fill="#E5A3AA"/>
<circle cx="1633" cy="129" r="46" fill="#E5A3AA"/>
<path d="M1633 198.5C1633 198.5 1599.42 235 1558 235C1516.58 235 1483 198.5 1483 198.5C1483 198.5 1516.58 162 1558 162C1599.42 162 1633 198.5 1633 198.5Z" fill="#F2E4E3"/>
<path d="M1493.5 226C1493.5 226 1530 259.579 1530 301C1530 342.421 1493.5 376 1493.5 376C1493.5 376 1457 342.421 1457 301C1457 259.579 1493.5 226 1493.5 226Z" fill="#F2E4E3"/>
<path d="M1391 140C1410.89 140 1429.97 132.098 1444.03 118.033C1458.1 103.968 1466 84.8912 1466 65C1466 45.1088 1458.1 26.0322 1444.03 11.967C1429.97 -2.09823 1410.89 -10 1391 -10L1391 65V140Z" fill="#FBF9F4"/>
</g>
<g opacity="0.5">
<circle cx="1194" cy="147" r="75" transform="rotate(-180 1194 147)" fill="#D8958E"/>
<circle cx="1270" cy="4" r="46" transform="rotate(-180 1270 4)" fill="#E5A3AA"/>
<circle cx="1074" cy="83" r="46" transform="rotate(-180 1074 83)" fill="#E5A3AA"/>
<path d="M1074 13.5C1074 13.5 1107.58 -23 1149 -23C1190.42 -23 1224 13.5 1224 13.5C1224 13.5 1190.42 50 1149 50C1107.58 50 1074 13.5 1074 13.5Z" fill="#F2E4E3"/>
<path d="M1316 72C1296.11 72 1277.03 79.9018 1262.97 93.967C1248.9 108.032 1241 127.109 1241 147C1241 166.891 1248.9 185.968 1262.97 200.033C1277.03 214.098 1296.11 222 1316 222L1316 147V72Z" fill="#FBF9F4"/>
</g>
<g opacity="0.5">
<circle cx="338.231" cy="39.4089" r="44.1872" fill="#E5A3AA"/>
<path d="M526.508 30.2833C526.508 30.2833 494.252 65.3448 454.463 65.3448C414.674 65.3448 382.419 30.2833 382.419 30.2833C382.419 30.2833 414.674 -4.77832 454.463 -4.77832C494.252 -4.77832 526.508 30.2833 526.508 30.2833Z" fill="#F2E4E3"/>
<path d="M392.505 56.6994C392.505 56.6994 427.567 88.9548 427.567 128.744C427.567 168.533 392.505 200.788 392.505 200.788C392.505 200.788 357.443 168.533 357.443 128.744C357.443 88.9548 392.505 56.6994 392.505 56.6994Z" fill="#F2E4E3"/>
</g>
</g>
<defs>
<clipPath id="clip0_2050_5543">
<rect width="1600" height="336" fill="white"/>
</clipPath>
</defs>
</svg>
