<svg width="320" height="182" viewBox="0 0 320 182" fill="none" xmlns="http://www.w3.org/2000/svg">
<g clip-path="url(#clip0_2050_9897)">
<rect width="320" height="182" fill="#EFCABA"/>
<g opacity="0.5">
<circle cx="122" cy="25" r="75" fill="#D8958E"/>
<circle cx="256" cy="230" r="75" fill="#D8958E"/>
<circle cx="46" cy="168" r="46" fill="#E5A3AA"/>
<circle cx="242" cy="89" r="46" fill="#E5A3AA"/>
<path d="M242 158.5C242 158.5 208.421 195 167 195C125.579 195 92 158.5 92 158.5C92 158.5 125.579 122 167 122C208.421 122 242 158.5 242 158.5Z" fill="#F2E4E3"/>
<path d="M0 100C19.8912 100 38.9678 92.0982 53.033 78.033C67.0982 63.9678 75 44.8912 75 25C75 5.10877 67.0982 -13.9678 53.033 -28.033C38.9678 -42.0982 19.8912 -50 7.62939e-06 -50L0 25L0 100Z" fill="#FBF9F4"/>
<path d="M256 305C275.891 305 294.968 297.098 309.033 283.033C323.098 268.968 331 249.891 331 230C331 210.109 323.098 191.032 309.033 176.967C294.968 162.902 275.891 155 256 155L256 230V305Z" fill="#FBF9F4"/>
</g>
<g opacity="0.5">
<circle cx="338.231" cy="39.4089" r="44.1872" fill="#E5A3AA"/>
</g>
</g>
<defs>
<clipPath id="clip0_2050_9897">
<rect width="320" height="182" fill="white"/>
</clipPath>
</defs>
</svg>
