<svg width="170" height="36" viewBox="0 0 170 36" fill="none" xmlns="http://www.w3.org/2000/svg">
<path d="M23.6 35.48L19.64 30.4C18.8667 30.6933 18.0267 30.92 17.12 31.08C16.24 31.24 15.4133 31.32 14.64 31.32C11.68 31.32 9.10667 30.72 6.92 29.52C4.76 28.32 3.08 26.64 1.88 24.48C0.706667 22.32 0.12 19.8 0.12 16.92C0.12 13.96 0.72 11.3867 1.92 9.2C3.14667 7.01333 4.85333 5.32 7.04 4.12C9.22667 2.92 11.7733 2.32 14.68 2.32C17.56 2.32 20.08 2.90667 22.24 4.08C24.4267 5.22666 26.12 6.88 27.32 9.04C28.52 11.1733 29.12 13.72 29.12 16.68C29.12 18.8133 28.7867 20.68 28.12 22.28C27.48 23.8533 26.5733 25.2533 25.4 26.48L29.16 31.24L23.6 35.48ZM14.48 24.48C16.2133 24.48 17.6133 24.08 18.68 23.28C19.7467 22.48 20.52 21.48 21 20.28C21.48 19.08 21.72 17.88 21.72 16.68C21.72 15.5067 21.48 14.3467 21 13.2C20.5467 12.0267 19.8 11.0667 18.76 10.32C17.7467 9.54667 16.3867 9.16 14.68 9.16C12.9467 9.16 11.5467 9.56 10.48 10.36C9.44 11.1333 8.68 12.12 8.2 13.32C7.74667 14.52 7.52 15.7333 7.52 16.96C7.52 18.16 7.74667 19.3467 8.2 20.52C8.68 21.6667 9.42667 22.6133 10.44 23.36C11.48 24.1067 12.8267 24.48 14.48 24.48ZM42.2491 31.32C39.0224 31.32 36.5157 30.52 34.7291 28.92C32.9691 27.2933 32.0891 24.8667 32.0891 21.64V9.92H39.1691V21.08C39.1691 21.7733 39.2624 22.4133 39.4491 23C39.6357 23.56 39.9557 24.0133 40.4091 24.36C40.8891 24.7067 41.5157 24.88 42.2891 24.88C43.1691 24.88 43.7957 24.68 44.1691 24.28C44.5691 23.88 44.8091 23.3867 44.8891 22.8C44.9957 22.1867 45.0491 21.6133 45.0491 21.08V9.92H52.0891V21.64C52.0891 25.08 51.1957 27.56 49.4091 29.08C47.6491 30.5733 45.2624 31.32 42.2491 31.32ZM65.7619 31.32C63.6019 31.32 61.7085 30.8933 60.0819 30.04C58.4819 29.16 57.2285 27.92 56.3219 26.32C55.4419 24.72 55.0019 22.8133 55.0019 20.6C55.0019 18.3867 55.4552 16.4533 56.3619 14.8C57.2685 13.12 58.5352 11.8133 60.1619 10.88C61.7885 9.94667 63.6819 9.48 65.8419 9.48C67.3885 9.48 68.7752 9.72 70.0019 10.2C71.2285 10.68 72.2819 11.3733 73.1619 12.28C74.0419 13.1867 74.7085 14.28 75.1619 15.56C75.6419 16.84 75.8819 18.28 75.8819 19.88C75.8819 20.3333 75.8552 20.7733 75.8019 21.2C75.7752 21.6 75.7085 22.0267 75.6019 22.48H62.0019C62.0552 22.9867 62.2152 23.4667 62.4819 23.92C62.7752 24.3733 63.1752 24.7333 63.6819 25C64.1885 25.2667 64.8285 25.4 65.6019 25.4C66.2419 25.4 66.7885 25.3333 67.2419 25.2C67.7219 25.04 68.1085 24.84 68.4019 24.6C68.6952 24.36 68.8819 24.12 68.9619 23.88H75.8819C75.5085 25.6133 74.8152 27.04 73.8019 28.16C72.8152 29.2533 71.6152 30.0533 70.2019 30.56C68.8152 31.0667 67.3352 31.32 65.7619 31.32ZM62.1219 17.88H69.2419C69.2419 17.48 69.1219 17.0667 68.8819 16.64C68.6685 16.1867 68.2952 15.8133 67.7619 15.52C67.2552 15.2267 66.5752 15.08 65.7219 15.08C64.8952 15.08 64.2152 15.2267 63.6819 15.52C63.1485 15.8133 62.7485 16.1867 62.4819 16.64C62.2419 17.0667 62.1219 17.48 62.1219 17.88ZM87.4888 31.32C86.4488 31.32 85.3954 31.2 84.3288 30.96C83.2621 30.72 82.2621 30.32 81.3288 29.76C80.4221 29.2 79.6488 28.44 79.0088 27.48C78.3688 26.4933 77.9421 25.2667 77.7288 23.8H84.8888C84.9954 24.1467 85.1821 24.4533 85.4488 24.72C85.7421 24.9867 86.0888 25.2 86.4888 25.36C86.9154 25.4933 87.3688 25.56 87.8488 25.56C88.1688 25.56 88.4488 25.5333 88.6888 25.48C88.9554 25.4267 89.1821 25.3467 89.3688 25.24C89.5554 25.1067 89.6888 24.96 89.7688 24.8C89.8754 24.64 89.9288 24.4667 89.9288 24.28C89.9288 23.9067 89.7821 23.64 89.4888 23.48C89.1954 23.2933 88.7954 23.16 88.2888 23.08C87.7821 22.9733 87.2088 22.8533 86.5688 22.72C85.5821 22.5067 84.5154 22.24 83.3688 21.92C82.2488 21.5733 81.3021 21.1467 80.5288 20.64C80.1288 20.3733 79.7821 20.08 79.4888 19.76C79.2221 19.4133 78.9954 19.04 78.8088 18.64C78.6488 18.24 78.5288 17.8267 78.4488 17.4C78.3688 16.9733 78.3288 16.52 78.3288 16.04C78.3288 14.8133 78.5954 13.7867 79.1288 12.96C79.6888 12.1067 80.3954 11.4267 81.2488 10.92C82.1288 10.4133 83.0888 10.0533 84.1288 9.84C85.1954 9.6 86.2354 9.48 87.2487 9.48C88.7421 9.48 90.1288 9.72 91.4088 10.2C92.7154 10.68 93.7954 11.4533 94.6488 12.52C95.5288 13.5867 96.0754 15 96.2888 16.76H89.4488C89.3954 16.28 89.1288 15.9067 88.6488 15.64C88.1954 15.3733 87.6354 15.24 86.9688 15.24C86.7021 15.24 86.4488 15.2667 86.2088 15.32C85.9954 15.3733 85.7954 15.44 85.6088 15.52C85.4488 15.6 85.3154 15.7067 85.2088 15.84C85.1288 15.9733 85.0888 16.12 85.0888 16.28C85.0888 16.3867 85.1154 16.5067 85.1688 16.64C85.2488 16.7733 85.3821 16.9067 85.5688 17.04C85.7554 17.1467 86.0088 17.2533 86.3288 17.36C87.2088 17.5733 88.0354 17.76 88.8088 17.92C89.6088 18.08 90.4088 18.24 91.2088 18.4C92.0888 18.56 92.9554 18.84 93.8088 19.24C94.6621 19.6133 95.3688 20.1867 95.9288 20.96C96.5154 21.7333 96.8088 22.8133 96.8088 24.2C96.8088 25.56 96.5288 26.7067 95.9688 27.64C95.4088 28.5467 94.6621 29.2667 93.7288 29.8C92.8221 30.3333 91.8221 30.72 90.7288 30.96C89.6354 31.2 88.5554 31.32 87.4888 31.32ZM109.244 31C107.377 31 105.777 30.8 104.444 30.4C103.137 30 102.124 29.2933 101.404 28.28C100.711 27.24 100.364 25.7467 100.364 23.8V16.24H97.4441V9.92H100.364V4.68H107.444V9.92H111.324V16.24H107.444V22.72C107.444 23.2267 107.524 23.68 107.684 24.08C107.871 24.4533 108.377 24.64 109.204 24.64H111.084V31H109.244ZM113.614 31V9.92H120.694V31H113.614ZM117.174 8.48C115.894 8.48 114.854 8.10667 114.054 7.36C113.281 6.58667 112.894 5.58667 112.894 4.36C112.894 3.10666 113.308 2.08 114.134 1.28C114.961 0.479998 115.988 0.0799975 117.214 0.0799975C118.388 0.0799975 119.388 0.466665 120.214 1.24C121.041 1.98667 121.454 3.01333 121.454 4.32C121.454 5.57333 121.054 6.58667 120.254 7.36C119.481 8.10667 118.454 8.48 117.174 8.48ZM134.793 31.32C132.713 31.32 130.833 30.9067 129.153 30.08C127.499 29.2533 126.179 28.04 125.193 26.44C124.206 24.8133 123.713 22.84 123.713 20.52C123.713 18.1467 124.206 16.1467 125.193 14.52C126.206 12.8667 127.539 11.6133 129.193 10.76C130.846 9.90666 132.673 9.48 134.673 9.48C136.726 9.48 138.566 9.92 140.193 10.8C141.846 11.68 143.153 12.9467 144.113 14.6C145.099 16.2533 145.593 18.2667 145.593 20.64C145.593 22.9333 145.126 24.88 144.193 26.48C143.259 28.08 141.979 29.2933 140.353 30.12C138.726 30.92 136.873 31.32 134.793 31.32ZM134.673 24.76C135.686 24.76 136.486 24.5467 137.073 24.12C137.659 23.6933 138.073 23.16 138.313 22.52C138.553 21.8533 138.673 21.2 138.673 20.56C138.673 19.92 138.553 19.2533 138.313 18.56C138.073 17.8667 137.659 17.28 137.073 16.8C136.513 16.32 135.713 16.08 134.673 16.08C133.659 16.08 132.846 16.32 132.233 16.8C131.646 17.28 131.233 17.8667 130.993 18.56C130.753 19.2267 130.633 19.8933 130.633 20.56C130.633 21.2267 130.753 21.8933 130.993 22.56C131.259 23.2 131.686 23.7333 132.273 24.16C132.859 24.56 133.659 24.76 134.673 24.76ZM148.536 31V9.92H155.056L155.456 11.84C156.123 11.1467 156.83 10.64 157.576 10.32C158.35 9.97333 159.096 9.74667 159.816 9.64C160.536 9.53333 161.15 9.48 161.656 9.48C163.63 9.48 165.176 9.93333 166.296 10.84C167.443 11.7467 168.256 12.9467 168.736 14.44C169.216 15.9333 169.456 17.5733 169.456 19.36V31H162.376V19.96C162.376 19.5333 162.323 19.0933 162.216 18.64C162.136 18.16 161.976 17.72 161.736 17.32C161.523 16.92 161.216 16.6 160.816 16.36C160.416 16.0933 159.896 15.96 159.256 15.96C158.43 15.96 157.736 16.1467 157.176 16.52C156.643 16.8933 156.243 17.4 155.976 18.04C155.736 18.6533 155.616 19.3467 155.616 20.12V31H148.536Z" fill="#F2E4E3"/>
</svg>
